<svg width="26" height="23" viewBox="0 0 26 23" fill="none" xmlns="http://www.w3.org/2000/svg">
<path d="M19.375 0H6.45833C6.1225 0 5.79958 0.0133336 5.48958 0.0666669C2.15708 0.466667 0 3.01333 0 6.66667V16C0 20 2.58333 22.6667 6.45833 22.6667H19.375C23.25 22.6667 25.8333 20 25.8333 16V6.66667C25.8333 2.66667 23.25 0 19.375 0ZM7.595 14.6667C5.8125 14.6667 4.36583 13.1733 4.36583 11.3333C4.36583 9.49333 5.8125 8 7.595 8C9.3775 8 10.8242 9.49333 10.8242 11.3333C10.8242 13.1733 9.3775 14.6667 7.595 14.6667ZM15.9908 15H15.345C14.8154 15 14.3762 14.5467 14.3762 14C14.3762 13.4533 14.8154 13 15.345 13H15.9908C16.5204 13 16.9596 13.4533 16.9596 14C16.9596 14.5467 16.5204 15 15.9908 15ZM20.5117 15H19.8658C19.3362 15 18.8971 14.5467 18.8971 14C18.8971 13.4533 19.3362 13 19.8658 13H20.5117C21.0412 13 21.4804 13.4533 21.4804 14C21.4804 14.5467 21.0412 15 20.5117 15ZM20.5117 9.66667H15.345C14.8154 9.66667 14.3762 9.21333 14.3762 8.66667C14.3762 8.12 14.8154 7.66667 15.345 7.66667H20.5117C21.0412 7.66667 21.4804 8.12 21.4804 8.66667C21.4804 9.21333 21.0412 9.66667 20.5117 9.66667Z" fill="#202020"/>
</svg>
